#!OML:ASF F:\VICON\USERDATA\INSTALL\Justin_Nancy\Justin_Nancy.ASF
:FULLY-SPECIFIED
:DEGREES
158
root 13.2508 17.6108 -3.23978 -0.55012 -0.707727 1.82692
lowerback 6.94237 1.15126 -3.21937
upperback 0.0609655 1.30744 0.832277
thorax -3.92445 0.717971 2.53745
lowerneck -16.7991 -4.4727 -9.82782
upperneck 25.6379 -5.40868 6.74764
head 11.6153 -2.57081 3.34867
rclavicle -1.01629e-014 -1.19271e-015
rhumerus -30.9179 -13.8769 -80.3682
rradius 29.737
rwrist 8.02183
rhand -14.0299 12.7942
rfingers 7.12502
rthumb 12.1003 -16.836
lclavicle -1.01629e-014 -1.19271e-015
lhumerus -32.5666 16.3379 80.9643
lradius 21.4844
lwrist -13.5379
lhand -12.8506 28.5085
lfingers 7.12502
lthumb 13.2372 58.0682
rfemur -5.86399 -1.13947 21.0115
rtibia 58.7672
rfoot 5.81987 -8.02935
rtoes 11.4092
lfemur -18.2187 1.43651 -21.9403
ltibia 23.4506
lfoot -2.57039 0.454983
ltoes 1.91548
159
root 13.2555 17.6188 -3.12231 -0.63061 -0.381128 1.76239
lowerback 7.28507 0.997269 -3.30779
upperback 0.00612833 1.08761 0.942355
thorax -4.16298 0.616458 2.72046
lowerneck -16.4623 -4.58333 -10.0573
upperneck 25.7297 -5.54367 6.76068
head 11.6058 -2.66004 3.3765
rclavicle -1.18898e-014 3.97569e-016
rhumerus -31.1549 -14.168 -80.1349
rradius 29.2303
rwrist 8.93472
rhand -14.1384 13.2679
rfingers 7.12502
rthumb 11.9956 -16.3684
lclavicle -1.18898e-014 3.97569e-016
lhumerus -32.4008 16.2119 80.9792
lradius 21.5494
lwrist -13.4939
lhand -12.385 29.1622
lfingers 7.12502
lthumb 13.686 58.6922
rfemur -7.07845 -1.79831 21.0594
rtibia 60.3079
rfoot 4.81322 -9.37991
rtoes 13.4947
lfemur -17.6109 1.49593 -21.9416
ltibia 23.211
lfoot -2.81876 0.183548
ltoes 2.13829
160
root 13.2615 17.6341 -2.99553 -0.743119 -0.223072 1.66833
lowerback 7.46689 0.910065 -3.29379
upperback 0.0717869 0.96985 1.00389
thorax -4.18913 0.55787 2.78818
lowerneck -16.6633 -4.69526 -10.0218
upperneck 25.9358 -5.67772 6.66598
head 11.7355 -2.72642 3.31531
rclavicle -1.24737e-014 1.19271e-015
rhumerus -31.1937 -14.5825 -79.9539
rradius 28.5669
rwrist 9.74209
rhand -14.1549 13.7119
rfingers 7.12502
rthumb 11.9797 -15.9252
lclavicle -1.24737e-014 1.19271e-015
lhumerus -32.1085 16.3451 80.8883
lradius 21.5962
lwrist -13.7729
lhand -13.4592 26.3961
lfingers 7.12502
lthumb 12.6505 55.993
rfemur -8.15951 -2.34164 21.1451
rtibia 61.5898
rfoot 4.2281 -10.3637
rtoes 15.305
lfemur -16.9174 1.48251 -21.8619
ltibia 23.0356
lfoot -3.21985 0.142482
ltoes 2.55238
161
root 13.273 17.6472 -2.86868 -0.885835 -0.116158 1.86146
lowerback 7.76444 0.797668 -3.49545
upperback -0.00412368 0.791087 0.997139
thorax -4.42537 0.478802 2.91272
lowerneck -16.5881 -4.48796 -9.8506
upperneck 25.9566 -5.37728 6.45265
head 11.6854 -2.60253 3.25435
rclavicle 1.07592e-014 5.56597e-015
rhumerus -31.6006 -14.8488 -79.7293
rradius 28.0972
rwrist 10.0192
rhand -14.2553 14.2745
rfingers 7.12502
rthumb 11.8829 -15.3683
lclavicle 1.07592e-014 5.56597e-015
lhumerus -32.2615 15.9694 80.9467
lradius 22.0551
lwrist -13.4179
lhand -14.3396 24.5978
lfingers 7.12502
lthumb 11.8017 54.2452
rfemur -9.11718 -2.82535 20.8516
rtibia 62.6667
rfoot 3.61112 -11.2542
rtoes 16.8156
lfemur -16.2676 1.37268 -22.1283
ltibia 22.9692
lfoot -3.54484 0.292757
ltoes 2.58014
162
root 13.2893 17.6608 -2.7437 -0.92954 -0.206111 1.9134
lowerback 7.75973 0.710234 -3.49997
upperback 0.0954307 0.677043 1.03389
thorax -4.31055 0.419084 2.96713
lowerneck -16.2944 -4.3312 -9.89699
upperneck 25.6377 -5.13202 6.3768
head 11.4794 -2.50857 3.2685
rclavicle 6.06293e-015 1.98785e-015
rhumerus -31.6818 -15.198 -79.5978
rradius 27.7592
rwrist 10.3175
rhand -14.4831 14.76
rfingers 7.12502
rthumb 11.6632 -14.8954
lclavicle 6.06293e-015 1.98785e-015
lhumerus -31.9175 15.7418 81.0989
lradius 22.3467
lwrist -12.7155
lhand -14.0713 25.9164
lfingers 7.12502
lthumb 12.0603 55.5489
rfemur -10.1732 -3.11141 20.6788
rtibia 63.5514
rfoot 2.8604 -12.0946
rtoes 18.4799
lfemur -15.8041 1.4437 -22.2465
ltibia 23.0242
lfoot -3.89865 0.413047
ltoes 2.70778
163
root 13.304 17.6711 -2.62639 -0.818949 -0.30298 1.84912
lowerback 7.60096 0.642906 -3.42607
upperback 0.265738 0.604648 1.11821
thorax -4.03829 0.374781 3.02248
lowerneck -16.3993 -4.34042 -10.0619
upperneck 25.4762 -5.09417 6.42977
head 11.4421 -2.49774 3.31784
rclavicle -8.3738e-015 3.57812e-015
rhumerus -31.5785 -15.7591 -79.364
rradius 27.6431
rwrist 11.686
rhand -14.1772 14.3337
rfingers 7.12502
rthumb 11.9583 -15.3047
lclavicle -8.3738e-015 3.57812e-015
lhumerus -31.3 16.2393 81.0567
lradius 22.2842
lwrist -13.1689
lhand -14.2256 25.7502
lfingers 7.12502
lthumb 11.9116 55.3913
rfemur -11.5406 -3.43511 20.6469
rtibia 64.3211
rfoot 2.43685 -12.7462
rtoes 20.1751
lfemur -15.4604 1.62439 -22.2744
ltibia 23.1385
lfoot -4.34097 0.536785
ltoes 1.28854
164
root 13.3119 17.6772 -2.51237 -0.728336 -0.165584 1.66158
lowerback 7.56468 0.521715 -3.29437
upperback 0.302714 0.46147 1.24623
thorax -3.96815 0.300593 3.09746
lowerneck -16.3377 -4.32306 -10.1346
upperneck 25.4108 -5.05789 6.44999
head 11.4043 -2.48652 3.34257
rclavicle 8.22472e-015 -1.19271e-015
rhumerus -31.5565 -16.229 -79.0781
rradius 27.3307
rwrist 12.9315
rhand -13.7177 13.3996
rfingers 7.12502
rthumb 12.4013 -16.2125
lclavicle 8.22472e-015 -1.19271e-015
lhumerus -30.9286 16.4623 81.0372
lradius 22.3304
lwrist -13.7258
lhand -14.0666 26.4326
lfingers 7.12502
lthumb 12.0649 56.0648
rfemur -12.8148 -3.91979 20.8436
rtibia 64.9201
rfoot 1.86013 -13.2251
rtoes 20.796
lfemur -15.1922 1.80735 -22.2001
ltibia 23.3604
lfoot -4.75379 0.481158
ltoes -1.6097
165
root 13.314 17.6811 -2.39569 -0.718787 -0.0184379 1.7331
lowerback 7.65486 0.439092 -3.47351
upperback 0.298918 0.334748 1.29001
thorax -4.01426 0.242404 3.25838
lowerneck -16.311 -4.30024 -10.0917
upperneck 25.4817 -5.03517 6.41837
head 11.4215 -2.47726 3.32862
rclavicle -4.69629e-015 -1.19271e-015
rhumerus -31.6944 -16.8337 -78.753
rradius 26.8879
rwrist 13.5533
rhand -13.9561 13.7332
rfingers 7.12502
rthumb 12.1715 -15.8927
lclavicle -4.69629e-015 -1.19271e-015
lhumerus -30.5104 16.1707 81.2172
lradius 22.369
lwrist -13.525
lhand -14.343 27.8227
lfingers 7.12502
lthumb 11.7983 57.4704
rfemur -13.8827 -4.39822 20.7978
rtibia 65.373
rfoot 0.77117 -13.4663
rtoes 20.2449
lfemur -14.9045 1.80029 -22.3279
ltibia 23.6383
lfoot -5.21366 0.490236
ltoes -2.4581
166
root 13.3187 17.6895 -2.2712 -0.693886 -0.0275877 1.79326
lowerback 7.60627 0.361538 -3.53239
upperback 0.378582 0.228259 1.28053
thorax -3.89547 0.186845 3.29325
lowerneck -16.5829 -4.32041 -10.0026
upperneck 25.5471 -5.05909 6.39684
head 11.4994 -2.47807 3.30043
rclavicle -2.98177e-016 3.57812e-015
rhumerus -31.8648 -17.3545 -78.5718
rradius 26.741
rwrist 13.6147
rhand -13.9473 14.4539
rfingers 7.12502
rthumb 12.1799 -15.1715
lclavicle -2.98177e-016 3.57812e-015
lhumerus -30.0405 15.269 81.5521
lradius 22.7322
lwrist -12.4694
lhand -14.5055 28.9566
lfingers 7.12502
lthumb 11.6417 58.6132
rfemur -14.8846 -4.71424 20.747
rtibia 65.6243
rfoot -0.581561 -13.7436
rtoes 20.8314
lfemur -14.6323 1.70597 -22.3994
ltibia 23.896
lfoot -5.65819 0.741243
ltoes -1.37243
167
root 13.3248 17.6946 -2.14378 -0.604975 -0.00968635 1.92317
lowerback 7.47271 0.271699 -3.65978
upperback 0.347641 0.101262 1.26168
thorax -3.8424 0.1253 3.35903
lowerneck -16.29 -4.55204 -10.0299
upperneck 25.2666 -5.37868 6.31202
head 11.3651 -2.63851 3.22106
rclavicle -9.83984e-015 -3.97569e-015
rhumerus -32.4027 -17.6747 -78.3725
rradius 26.8619
rwrist 13.4875
rhand -14.1372 15.0999
rfingers 7.12502
rthumb 11.9968 -14.5363
lclavicle -9.83984e-015 -3.97569e-015
lhumerus -29.991 14.7305 81.6449
lradius 23.2658
lwrist -12.104
lhand -14.133 29.1914
lfingers 7.12502
lthumb 12.0009 58.8274
rfemur -15.9163 -5.07705 20.6254
rtibia 65.7236
rfoot -1.55283 -14.0935
rtoes 21.569
lfemur -14.3947 1.62277 -22.5564
ltibia 24.1491
lfoot -6.04876 1.18534
ltoes 0.1583
168
root 13.3323 17.6951 -2.02529 -0.527482 0.137212 2.114
lowerback 7.50267 0.147602 -3.83597
upperback 0.22979 -0.0826672 1.23177
thorax -3.96612 0.04163 3.44792
lowerneck -16.0931 -4.20604 -9.86051
upperneck 25.4948 -4.95057 6.26827
head 11.363 -2.43973 3.24837
rclavicle 1.24489e-014 4.77083e-015
rhumerus -32.9187 -17.9142 -78.1549
rradius 26.7851
rwrist 13.3001
rhand -14.3374 14.8522
rfingers 7.12502
rthumb 11.8038 -14.7951
lclavicle 1.24489e-014 4.77083e-015
lhumerus -29.9994 14.218 81.6845
lradius 23.6798
lwrist -11.8314
lhand -13.9131 29.0398
lfingers 7.12502
lthumb 12.2129 58.6633
rfemur -16.9322 -5.64061 20.4393
rtibia 65.6968
rfoot -2.37747 -14.4857
rtoes 20.8789
lfemur -14.1762 1.58657 -22.8311
ltibia 24.4426
lfoot -6.55349 1.48908
ltoes 0.892621
